Exact Audio Copy V0.99 prebeta 4 from 23. January 2008

EAC 抓取日志文件从18. 二月 2013, 20:08

童安格 / 名人百集 童安格

使用驱动器  ：TEAC    CD-W54E   Adapter: 5  ID: 0

读取模式     : 保护
使用精确流   : 是
废除音频缓冲 : 是
使用 C2 指针 : 否

读取偏移校正                   : 0
读取 Lead-In 和 Lead-Out       : 否
用静音填充抓取中丢失偏移的采样 : 是
去除首尾静音块                 : 否
在 CRC 计算中使用了空样本      : 否
已用接口                       : Win NT 及 2000 本地 Win32 接口

所用输出格式 : 内部 WAV 函数
样本格式     : 44.100 Hz;16 Bit;立体声


被抓轨 CD 的 TOC

     音轨 |   开始   |   长度   | 起始扇区 | 结尾扇区 
    --------------------------------------------------
       1  |  0:00.00 |  4:34.47 |       0  |   20596  
       2  |  4:34.47 |  4:46.00 |   20597  |   42046  
       3  |  9:20.47 |  3:58.23 |   42047  |   59919  
       4  | 13:18.70 |  3:17.70 |   59920  |   74764  
       5  | 16:36.65 |  3:24.64 |   74765  |   90128  
       6  | 20:01.54 |  4:12.18 |   90129  |  109046  
       7  | 24:13.72 |  4:13.23 |  109047  |  128044  
       8  | 28:27.20 |  4:13.05 |  128045  |  147024  
       9  | 32:40.25 |  4:36.15 |  147025  |  167739  
      10  | 37:16.40 |  4:18.05 |  167740  |  187094  
      11  | 41:34.45 |  4:00.35 |  187095  |  205129  
      12  | 45:35.05 |  4:48.20 |  205130  |  226749  
      13  | 50:23.25 |  4:20.50 |  226750  |  246299  
      14  | 54:44.00 |  4:44.32 |  246300  |  267631  


范围状态及错误

已选择范围

     文件名 D:\行板如歌原抓\名人百集 童安格.wav

     峰值电平 100.0 %
     范围质量 100.0 %
     复制 CRC FD7A8FE7
     复制成功

没有错误发生

状态报告结尾
